<svg width="192" height="23" viewBox="0 0 192 23" fill="none" xmlns="http://www.w3.org/2000/svg">
<path d="M12.2425 5.2H16.1305V22H12.2425V5.2ZM4.61047 22H0.722469V5.2H4.61047V22ZM12.5305 15.112H4.32247V11.824H12.5305V15.112ZM28.2653 22.288C26.9373 22.288 25.7053 22.072 24.5693 21.64C23.4493 21.208 22.4733 20.6 21.6413 19.816C20.8253 19.032 20.1853 18.112 19.7213 17.056C19.2733 16 19.0493 14.848 19.0493 13.6C19.0493 12.352 19.2733 11.2 19.7213 10.144C20.1853 9.088 20.8333 8.168 21.6653 7.384C22.4973 6.6 23.4733 5.992 24.5933 5.56C25.7133 5.128 26.9293 4.912 28.2413 4.912C29.5693 4.912 30.7853 5.128 31.8893 5.56C33.0093 5.992 33.9773 6.6 34.7933 7.384C35.6253 8.168 36.2733 9.088 36.7373 10.144C37.2013 11.184 37.4333 12.336 37.4333 13.6C37.4333 14.848 37.2013 16.008 36.7373 17.08C36.2733 18.136 35.6253 19.056 34.7933 19.84C33.9773 20.608 33.0093 21.208 31.8893 21.64C30.7853 22.072 29.5773 22.288 28.2653 22.288ZM28.2413 18.976C28.9933 18.976 29.6813 18.848 30.3053 18.592C30.9453 18.336 31.5053 17.968 31.9853 17.488C32.4653 17.008 32.8333 16.44 33.0893 15.784C33.3613 15.128 33.4973 14.4 33.4973 13.6C33.4973 12.8 33.3613 12.072 33.0893 11.416C32.8333 10.76 32.4653 10.192 31.9853 9.712C31.5213 9.232 30.9693 8.864 30.3293 8.608C29.6893 8.352 28.9933 8.224 28.2413 8.224C27.4893 8.224 26.7933 8.352 26.1533 8.608C25.5293 8.864 24.9773 9.232 24.4973 9.712C24.0173 10.192 23.6413 10.76 23.3693 11.416C23.1133 12.072 22.9853 12.8 22.9853 13.6C22.9853 14.384 23.1133 15.112 23.3693 15.784C23.6413 16.44 24.0093 17.008 24.4733 17.488C24.9533 17.968 25.5133 18.336 26.1533 18.592C26.7933 18.848 27.4893 18.976 28.2413 18.976ZM30.6653 3.712C30.2013 3.712 29.8093 3.56 29.4893 3.256C29.1693 2.952 29.0093 2.552 29.0093 2.056C29.0093 1.56 29.1693 1.16 29.4893 0.855999C29.8093 0.551999 30.2013 0.399999 30.6653 0.399999C31.1293 0.399999 31.5213 0.551999 31.8413 0.855999C32.1773 1.16 32.3453 1.56 32.3453 2.056C32.3453 2.552 32.1773 2.952 31.8413 3.256C31.5213 3.56 31.1293 3.712 30.6653 3.712ZM25.8173 3.712C25.3533 3.712 24.9533 3.56 24.6173 3.256C24.2973 2.952 24.1373 2.552 24.1373 2.056C24.1373 1.56 24.2973 1.16 24.6173 0.855999C24.9533 0.551999 25.3533 0.399999 25.8173 0.399999C26.2813 0.399999 26.6733 0.551999 26.9933 0.855999C27.3133 1.16 27.4733 1.56 27.4733 2.056C27.4733 2.552 27.3133 2.952 26.9933 3.256C26.6733 3.56 26.2813 3.712 25.8173 3.712ZM43.0997 22.288C41.9637 22.288 40.9157 22.08 39.9557 21.664C39.0117 21.232 38.2357 20.624 37.6277 19.84L39.7877 17.248C40.2517 17.856 40.7397 18.32 41.2517 18.64C41.7637 18.944 42.3157 19.096 42.9077 19.096C44.4917 19.096 45.2837 18.168 45.2837 16.312V8.32H39.3797V5.2H49.1477V16.096C49.1477 18.176 48.6357 19.728 47.6117 20.752C46.5877 21.776 45.0837 22.288 43.0997 22.288ZM58.5081 22.288C57.1641 22.288 55.8761 22.112 54.6441 21.76C53.4121 21.392 52.4201 20.92 51.6681 20.344L52.9881 17.416C53.7081 17.928 54.5561 18.352 55.5321 18.688C56.5241 19.008 57.5241 19.168 58.5321 19.168C59.3001 19.168 59.9161 19.096 60.3801 18.952C60.8601 18.792 61.2121 18.576 61.4361 18.304C61.6601 18.032 61.7721 17.72 61.7721 17.368C61.7721 16.92 61.5961 16.568 61.2441 16.312C60.8921 16.04 60.4281 15.824 59.8521 15.664C59.2761 15.488 58.6361 15.328 57.9321 15.184C57.2441 15.024 56.5481 14.832 55.8441 14.608C55.1561 14.384 54.5241 14.096 53.9481 13.744C53.3721 13.392 52.9001 12.928 52.5321 12.352C52.1801 11.776 52.0041 11.04 52.0041 10.144C52.0041 9.184 52.2601 8.312 52.7721 7.528C53.3001 6.728 54.0841 6.096 55.1241 5.632C56.1801 5.152 57.5001 4.912 59.0841 4.912C60.1401 4.912 61.1801 5.04 62.2041 5.296C63.2281 5.536 64.1321 5.904 64.9161 6.4L63.7161 9.352C62.9321 8.904 62.1481 8.576 61.3641 8.368C60.5801 8.144 59.8121 8.032 59.0601 8.032C58.3081 8.032 57.6921 8.12 57.2121 8.296C56.7321 8.472 56.3881 8.704 56.1801 8.992C55.9721 9.264 55.8681 9.584 55.8681 9.952C55.8681 10.384 56.0441 10.736 56.3961 11.008C56.7481 11.264 57.2121 11.472 57.7881 11.632C58.3641 11.792 58.9961 11.952 59.6841 12.112C60.3881 12.272 61.0841 12.456 61.7721 12.664C62.4761 12.872 63.1161 13.152 63.6921 13.504C64.2681 13.856 64.7321 14.32 65.0841 14.896C65.4521 15.472 65.6361 16.2 65.6361 17.08C65.6361 18.024 65.3721 18.888 64.8441 19.672C64.3161 20.456 63.5241 21.088 62.4681 21.568C61.4281 22.048 60.1081 22.288 58.5081 22.288ZM71.7728 18.16L71.5568 13.672L79.5968 5.2H83.9168L76.6688 13L74.5088 15.304L71.7728 18.16ZM68.2928 22V5.2H72.1568V22H68.2928ZM79.7888 22L73.8128 14.68L76.3568 11.92L84.3248 22H79.7888ZM93.609 22.288C92.281 22.288 91.049 22.072 89.913 21.64C88.793 21.208 87.817 20.6 86.985 19.816C86.169 19.032 85.529 18.112 85.065 17.056C84.617 16 84.393 14.848 84.393 13.6C84.393 12.352 84.617 11.2 85.065 10.144C85.529 9.088 86.177 8.168 87.009 7.384C87.841 6.6 88.817 5.992 89.937 5.56C91.057 5.128 92.273 4.912 93.585 4.912C94.913 4.912 96.129 5.128 97.233 5.56C98.353 5.992 99.321 6.6 100.137 7.384C100.969 8.168 101.617 9.088 102.081 10.144C102.545 11.184 102.777 12.336 102.777 13.6C102.777 14.848 102.545 16.008 102.081 17.08C101.617 18.136 100.969 19.056 100.137 19.84C99.321 20.608 98.353 21.208 97.233 21.64C96.129 22.072 94.921 22.288 93.609 22.288ZM93.585 18.976C94.337 18.976 95.025 18.848 95.649 18.592C96.289 18.336 96.849 17.968 97.329 17.488C97.809 17.008 98.177 16.44 98.433 15.784C98.705 15.128 98.841 14.4 98.841 13.6C98.841 12.8 98.705 12.072 98.433 11.416C98.177 10.76 97.809 10.192 97.329 9.712C96.865 9.232 96.313 8.864 95.673 8.608C95.033 8.352 94.337 8.224 93.585 8.224C92.833 8.224 92.137 8.352 91.497 8.608C90.873 8.864 90.321 9.232 89.841 9.712C89.361 10.192 88.985 10.76 88.713 11.416C88.457 12.072 88.329 12.8 88.329 13.6C88.329 14.384 88.457 15.112 88.713 15.784C88.985 16.44 89.353 17.008 89.817 17.488C90.297 17.968 90.857 18.336 91.497 18.592C92.137 18.848 92.833 18.976 93.585 18.976ZM105.699 22V5.2H109.587V18.832H118.011V22H105.699ZM123.759 11.968H131.847V14.992H123.759V11.968ZM124.047 18.88H133.191V22H120.183V5.2H132.879V8.32H124.047V18.88ZM136.285 22V5.2H139.501L149.413 17.296H147.853V5.2H151.693V22H148.501L138.565 9.904H140.125V22H136.285ZM155.668 22V5.2H163.3C165.124 5.2 166.732 5.552 168.124 6.256C169.516 6.944 170.604 7.912 171.388 9.16C172.172 10.408 172.564 11.888 172.564 13.6C172.564 15.296 172.172 16.776 171.388 18.04C170.604 19.288 169.516 20.264 168.124 20.968C166.732 21.656 165.124 22 163.3 22H155.668ZM159.556 18.808H163.108C164.228 18.808 165.196 18.6 166.012 18.184C166.844 17.752 167.484 17.144 167.932 16.36C168.396 15.576 168.628 14.656 168.628 13.6C168.628 12.528 168.396 11.608 167.932 10.84C167.484 10.056 166.844 9.456 166.012 9.04C165.196 8.608 164.228 8.392 163.108 8.392H159.556V18.808ZM178.976 18.16L178.76 13.672L186.8 5.2H191.12L183.872 13L181.712 15.304L178.976 18.16ZM175.496 22V5.2H179.36V22H175.496ZM186.992 22L181.016 14.68L183.56 11.92L191.528 22H186.992Z" fill="#FAF3E1"/>
</svg>
